HIERARCHY
ROOT Hips
{
	OFFSET 0.000000 71.427986 0.000000
	CHANNELS 6 Xposition Yposition Zposition Xrotation Yrotation Zrotation
	JOINT Pelvis
	{
		OFFSET 0.000000 0.000000 0.000000
		CHANNELS 3 Xrotation Yrotation Zrotation
		JOINT LeftUpLeg
		{
			OFFSET 6.797100 -2.508499 -1.318700
			CHANNELS 3 Xrotation Yrotation Zrotation
			JOINT LeftLeg
			{
				OFFSET 0.069008 -29.241863 0.690200
				CHANNELS 3 Xrotation Yrotation Zrotation
				JOINT LeftFoot
				{
					OFFSET -0.069008 -29.568123 -0.266800
					CHANNELS 3 Xrotation Yrotation Zrotation
					JOINT LeftToeBase
					{
						OFFSET 3.145500 -8.631000 16.059900
						CHANNELS 3 Xrotation Yrotation Zrotation
						End Site
						{
							OFFSET 0.000000 18.501587 0.000000
						}
					}
				}
			}
			JOINT Left_ShortSleeve
			{
				OFFSET 0.265923 -10.480953 1.153800
				CHANNELS 3 Xrotation Yrotation Zrotation
				End Site
				{
					OFFSET 1.725763 19.823879 0.000000
				}
			}
		}
		JOINT RightUpLeg
		{
			OFFSET -6.797100 -2.508499 -1.318700
			CHANNELS 3 Xrotation Yrotation Zrotation
			JOINT RightLeg
			{
				OFFSET -0.082453 -29.241932 0.688000
				CHANNELS 3 Xrotation Yrotation Zrotation
				JOINT RightFoot
				{
					OFFSET 0.082453 -29.568058 -0.264600
					CHANNELS 3 Xrotation Yrotation Zrotation
					JOINT RightToeBase
					{
						OFFSET -3.115300 -8.682800 16.113400
						CHANNELS 3 Xrotation Yrotation Zrotation
						End Site
						{
							OFFSET 0.000000 18.567114 0.000000
						}
					}
				}
			}
			JOINT Right_ShortSleeve
			{
				OFFSET -0.265923 -10.480953 1.153800
				CHANNELS 3 Xrotation Yrotation Zrotation
				End Site
				{
					OFFSET -1.725766 19.823910 0.000000
				}
			}
		}
	}
	JOINT Spine
	{
		OFFSET 0.000000 13.368103 0.470500
		CHANNELS 3 Xrotation Yrotation Zrotation
		JOINT Spine1
		{
			OFFSET 0.147000 13.837402 0.538800
			CHANNELS 3 Xrotation Yrotation Zrotation
			JOINT Spine2
			{
				OFFSET 0.168000 16.242897 -1.435500
				CHANNELS 3 Xrotation Yrotation Zrotation
				JOINT Neck
				{
					OFFSET 0.217200 18.631500 -1.679100
					CHANNELS 3 Xrotation Yrotation Zrotation
					JOINT Head
					{
						OFFSET 0.000000 6.599396 1.385900
						CHANNELS 3 Xrotation Yrotation Zrotation
						JOINT Hat
						{
							OFFSET -0.532200 27.220596 -10.096100
							CHANNELS 3 Xrotation Yrotation Zrotation
							End Site
							{
								OFFSET 0.000000 22.029861 0.000000
							}
						}
						JOINT HairD
						{
							OFFSET -10.777400 17.437393 -1.325900
							CHANNELS 3 Xrotation Yrotation Zrotation
							JOINT HairD1
							{
								OFFSET -3.290299 -11.051193 1.062200
								CHANNELS 3 Xrotation Yrotation Zrotation
								End Site
								{
									OFFSET 0.000000 11.579437 0.000000
								}
							}
						}
						JOINT HairB
						{
							OFFSET -10.777400 17.437393 1.467900
							CHANNELS 3 Xrotation Yrotation Zrotation
							JOINT HairB1
							{
								OFFSET -1.561200 -12.956299 3.590200
								CHANNELS 3 Xrotation Yrotation Zrotation
								End Site
								{
									OFFSET 0.000000 13.534866 0.000000
								}
							}
						}
						JOINT HairA
						{
							OFFSET 9.713100 17.437393 1.467900
							CHANNELS 3 Xrotation Yrotation Zrotation
							JOINT HairA1
							{
								OFFSET 1.561200 -12.956299 3.590200
								CHANNELS 3 Xrotation Yrotation Zrotation
								End Site
								{
									OFFSET 0.000000 13.534866 0.000000
								}
							}
						}
						JOINT HairC
						{
							OFFSET 9.713100 17.437393 -1.325900
							CHANNELS 3 Xrotation Yrotation Zrotation
							JOINT HairC1
							{
								OFFSET 3.290300 -11.051193 1.062200
								CHANNELS 3 Xrotation Yrotation Zrotation
								End Site
								{
									OFFSET 0.000000 11.579437 0.000000
								}
							}
						}
					}
				}
				JOINT LeftShoulder
				{
					OFFSET 5.101800 15.108002 -2.763700
					CHANNELS 3 Xrotation Yrotation Zrotation
					JOINT LeftArm
					{
						OFFSET 9.825497 2.506317 -1.597400
						CHANNELS 3 Xrotation Yrotation Zrotation
						JOINT LeftForeArm
						{
							OFFSET 21.966244 0.000000 0.000000
							CHANNELS 3 Xrotation Yrotation Zrotation
							JOINT LeftHand
							{
								OFFSET 33.879036 0.000000 0.000000
								CHANNELS 3 Xrotation Yrotation Zrotation
								JOINT LeftHandThumb1
								{
									OFFSET 6.715286 -2.359680 3.363841
									CHANNELS 3 Xrotation Yrotation Zrotation
									JOINT LeftHandThumb2
									{
										OFFSET 2.507072 -1.447464 1.447461
										CHANNELS 3 Xrotation Yrotation Zrotation
										JOINT LeftHandThumb3
										{
											OFFSET 2.898338 -1.673355 1.673357
											CHANNELS 3 Xrotation Yrotation Zrotation
											End Site
											{
												OFFSET -0.295959 3.727692 -0.131651
											}
										}
									}
								}
								JOINT LeftHandIndex1
								{
									OFFSET 14.190811 -0.254547 3.840278
									CHANNELS 3 Xrotation Yrotation Zrotation
									JOINT LeftHandIndex2
									{
										OFFSET 3.551727 0.000000 -0.000000
										CHANNELS 3 Xrotation Yrotation Zrotation
										JOINT LeftHandIndex3
										{
											OFFSET 2.894196 0.000000 0.000000
											CHANNELS 3 Xrotation Yrotation Zrotation
											End Site
											{
												OFFSET -1.000603 2.690872 0.366626
											}
										}
									}
								}
								JOINT LeftHandMiddle1
								{
									OFFSET 13.776489 0.000000 0.000000
									CHANNELS 3 Xrotation Yrotation Zrotation
									JOINT LeftHandMiddle2
									{
										OFFSET 3.438232 0.000000 0.000000
										CHANNELS 3 Xrotation Yrotation Zrotation
										JOINT LeftHandMiddle3
										{
											OFFSET 3.691551 0.000000 0.000000
											CHANNELS 3 Xrotation Yrotation Zrotation
											End Site
											{
												OFFSET -1.082298 3.499527 0.457670
											}
										}
									}
								}
								JOINT LeftHandRing1
								{
									OFFSET 13.966164 -0.268127 -3.067488
									CHANNELS 3 Xrotation Yrotation Zrotation
									JOINT LeftHandRing2
									{
										OFFSET 3.162567 0.000000 0.000000
										CHANNELS 3 Xrotation Yrotation Zrotation
										JOINT LeftHandRing3
										{
											OFFSET 3.324348 0.000000 0.000000
											CHANNELS 3 Xrotation Yrotation Zrotation
											End Site
											{
												OFFSET -0.861900 3.184998 0.405154
											}
										}
									}
								}
								JOINT LeftHandPinky1
								{
									OFFSET 13.131393 -0.168503 -5.746925
									CHANNELS 3 Xrotation Yrotation Zrotation
									JOINT LeftHandPinky2
									{
										OFFSET 2.849182 0.000000 0.000000
										CHANNELS 3 Xrotation Yrotation Zrotation
										JOINT LeftHandPinky3
										{
											OFFSET 2.805038 0.000000 0.000000
											CHANNELS 3 Xrotation Yrotation Zrotation
											End Site
											{
												OFFSET -0.882500 2.642609 0.325652
											}
										}
									}
								}
							}
							JOINT Left_Sleeve
							{
								OFFSET 6.592125 -0.646545 0.805568
								CHANNELS 3 Xrotation Yrotation Zrotation
								End Site
								{
									OFFSET -0.000179 20.275787 -0.000000
								}
							}
						}
					}
				}
				JOINT RightShoulder
				{
					OFFSET -5.731700 15.108002 -2.763700
					CHANNELS 3 Xrotation Yrotation Zrotation
					JOINT RightArm
					{
						OFFSET -9.825497 2.506317 -1.597400
						CHANNELS 3 Xrotation Yrotation Zrotation
						JOINT RightForeArm
						{
							OFFSET -21.966242 0.000000 0.000000
							CHANNELS 3 Xrotation Yrotation Zrotation
							JOINT RightHand
							{
								OFFSET -33.879032 0.000000 0.000000
								CHANNELS 3 Xrotation Yrotation Zrotation
								JOINT RightHandThumb1
								{
									OFFSET -6.715286 -2.359680 3.363841
									CHANNELS 3 Xrotation Yrotation Zrotation
									JOINT RightHandThumb2
									{
										OFFSET -2.507072 -1.447464 1.447461
										CHANNELS 3 Xrotation Yrotation Zrotation
										JOINT RightHandThumb3
										{
											OFFSET -2.898338 -1.673355 1.673357
											CHANNELS 3 Xrotation Yrotation Zrotation
											End Site
											{
												OFFSET 0.295959 3.727692 -0.131651
											}
										}
									}
								}
								JOINT RightHandIndex1
								{
									OFFSET -14.190811 -0.254547 3.840278
									CHANNELS 3 Xrotation Yrotation Zrotation
									JOINT RightHandIndex2
									{
										OFFSET -3.551727 0.000000 -0.000000
										CHANNELS 3 Xrotation Yrotation Zrotation
										JOINT RightHandIndex3
										{
											OFFSET -2.894196 0.000000 0.000000
											CHANNELS 3 Xrotation Yrotation Zrotation
											End Site
											{
												OFFSET 1.000603 2.690872 0.366626
											}
										}
									}
								}
								JOINT RightHandMiddle1
								{
									OFFSET -13.776489 0.000000 0.000000
									CHANNELS 3 Xrotation Yrotation Zrotation
									JOINT RightHandMiddle2
									{
										OFFSET -3.438232 0.000000 0.000000
										CHANNELS 3 Xrotation Yrotation Zrotation
										JOINT RightHandMiddle3
										{
											OFFSET -3.691551 0.000000 0.000000
											CHANNELS 3 Xrotation Yrotation Zrotation
											End Site
											{
												OFFSET 1.082298 3.499527 0.457670
											}
										}
									}
								}
								JOINT RightHandRing1
								{
									OFFSET -13.966164 -0.268127 -3.067488
									CHANNELS 3 Xrotation Yrotation Zrotation
									JOINT RightHandRing2
									{
										OFFSET -3.162567 0.000000 0.000000
										CHANNELS 3 Xrotation Yrotation Zrotation
										JOINT RightHandRing3
										{
											OFFSET -3.324348 0.000000 0.000000
											CHANNELS 3 Xrotation Yrotation Zrotation
											End Site
											{
												OFFSET 0.861900 3.184998 0.405154
											}
										}
									}
								}
								JOINT RightHandPinky1
								{
									OFFSET -13.131393 -0.168503 -5.746925
									CHANNELS 3 Xrotation Yrotation Zrotation
									JOINT RightHandPinky2
									{
										OFFSET -2.849182 0.000000 0.000000
										CHANNELS 3 Xrotation Yrotation Zrotation
										JOINT RightHandPinky3
										{
											OFFSET -2.805038 0.000000 0.000000
											CHANNELS 3 Xrotation Yrotation Zrotation
											End Site
											{
												OFFSET 0.882500 2.642609 0.325652
											}
										}
									}
								}
							}
							JOINT Right_Sleeve
							{
								OFFSET -6.592125 -0.646545 0.805568
								CHANNELS 3 Xrotation Yrotation Zrotation
								End Site
								{
									OFFSET 0.000179 20.275787 -0.000000
								}
							}
						}
					}
				}
				JOINT Bind_Right_JacketString
				{
					OFFSET -3.534800 11.969597 7.200700
					CHANNELS 3 Xrotation Yrotation Zrotation
					JOINT Bind_Right_JacketString1
					{
						OFFSET -0.319900 -6.102600 2.794100
						CHANNELS 3 Xrotation Yrotation Zrotation
						End Site
						{
							OFFSET 0.000000 6.719452 0.000000
						}
					}
				}
				JOINT Bind_Left_JacketString
				{
					OFFSET 2.904800 11.969597 7.200700
					CHANNELS 3 Xrotation Yrotation Zrotation
					JOINT Bind_Left_JacketString1
					{
						OFFSET 0.364800 -5.904503 3.186800
						CHANNELS 3 Xrotation Yrotation Zrotation
						End Site
						{
							OFFSET 0.000000 6.719513 0.000000
						}
					}
				}
				JOINT HairE
				{
					OFFSET 5.915200 17.612701 -11.592200
					CHANNELS 3 Xrotation Yrotation Zrotation
					JOINT HairE1
					{
						OFFSET 0.289200 -7.171898 -1.284500
						CHANNELS 3 Xrotation Yrotation Zrotation
						End Site
						{
							OFFSET 0.000000 7.291756 0.000000
						}
					}
				}
				JOINT HairF
				{
					OFFSET -0.864800 17.612701 -11.592200
					CHANNELS 3 Xrotation Yrotation Zrotation
					JOINT HairF1
					{
						OFFSET 0.000000 -14.087097 -2.127501
						CHANNELS 3 Xrotation Yrotation Zrotation
						End Site
						{
							OFFSET 0.000000 14.246841 0.000000
						}
					}
				}
				JOINT HairG
				{
					OFFSET -8.087700 17.612701 -11.592200
					CHANNELS 3 Xrotation Yrotation Zrotation
					JOINT HairG1
					{
						OFFSET -0.293600 -6.081398 -0.910100
						CHANNELS 3 Xrotation Yrotation Zrotation
						End Site
						{
							OFFSET 0.000000 6.156120 0.000000
						}
					}
				}
			}
		}
	}
	JOINT Pouch
	{
		OFFSET 0.000000 4.394501 10.847300
		CHANNELS 3 Xrotation Yrotation Zrotation
		End Site
		{
			OFFSET 0.000000 21.880577 0.000000
		}
	}
	JOINT Bag
	{
		OFFSET -13.229000 4.813004 -0.593300
		CHANNELS 3 Xrotation Yrotation Zrotation
		End Site
		{
			OFFSET 0.000000 21.880577 0.000000
		}
	}
	JOINT OccupyGuyFacialAnim_Joint
	{
		OFFSET 1.000000 -70.206398 -1.655000
		CHANNELS 3 Xrotation Yrotation Zrotation
		End Site
		{
			OFFSET 0.000000 21.880577 0.000000
		}
	}
}
MOTION
Frames: 4
Frame Time: 0.033333
-0.196651 69.933517 1.488339 -2.387244 0.044638 -2.085939 -0.000000 -0.000000 0.000000 -27.283771 4.373671 5.657877 61.447052 1.461803 0.577062 -5.011585 0.703404 -7.711610 0.000000 0.000000 -0.000000 0.000002 0.000001 -0.000000 -6.339274 -4.403201 6.156738 26.525528 6.836085 1.152125 -14.792518 1.858405 -9.793854 0.000000 -0.000000 0.000000 0.000000 0.000001 -0.000001 14.317913 1.101234 2.560616 -4.344032 0.844258 -0.932464 -4.329083 0.772026 -1.030093 -0.099228 -1.689893 2.622664 -5.840960 -0.460656 -1.540114 -0.000000 0.000000 -0.000000 -0.000000 0.000000 -0.000000 -0.000000 0.000000 -0.000000 -0.000000 0.000000 0.000000 -0.000000 0.000000 0.000000 -0.000000 0.000000 0.000000 -0.000000 0.000000 0.000000 -0.000000 0.000000 -0.000000 -0.000000 0.000000 -0.000000 2.370578 2.599465 -1.341543 -3.619447 -8.176343 -74.041867 12.004273 -10.526393 -9.010555 -0.379086 1.907679 11.577881 -4.982889 13.405888 11.311804 3.519536 8.484263 1.852755 -0.000001 0.000001 -0.000001 0.376763 -6.145551 -25.284489 -0.025329 0.056378 -22.184892 0.000002 0.000000 -0.000002 -0.682885 -5.541244 -29.068213 -0.003824 0.004150 -24.675353 0.000002 0.000001 0.000003 -1.915464 -6.193591 -34.198498 -0.005476 0.005425 -28.105129 0.000000 0.000002 -0.000000 -3.466231 -6.910119 -39.124563 -0.023431 0.014745 -31.381704 -0.000000 -0.000002 -0.000001 0.000000 0.000000 0.000000 3.460695 0.236096 4.393012 -1.476908 25.831304 70.378303 6.809886 19.848159 4.731889 -19.537633 0.957375 -12.165382 -0.782317 -20.555651 -5.073952 4.541479 -11.071731 -2.314970 -0.000001 0.000000 0.000001 0.748640 1.485596 23.202650 -0.030732 -0.054736 19.908982 -0.000001 -0.000001 -0.000002 -0.267970 2.185094 25.524683 -0.002370 0.002445 21.458410 0.000004 0.000001 0.000001 -1.284831 3.638293 29.547678 -0.011115 -0.003102 24.164453 -0.000000 -0.000002 -0.000000 -2.714552 5.335831 33.797552 0.008049 -0.005803 26.995682 -0.000000 -0.000001 -0.000003 0.000002 -0.000001 0.000000 0.000000 0.000000 -0.000000 -0.000000 0.000000 0.000000 0.000000 0.000000 -0.000000 0.000000 0.000000 -0.000000 0.000000 0.000000 -0.000000 -0.000000 0.000000 0.000000 0.000000 0.000000 -0.000000 0.000000 0.000000 -0.000000 0.000000 0.000000 -0.000000 -0.000000 0.000000 0.000000 -0.000000 -0.000000 0.000000 -0.000000 -0.000000 0.000000 -0.000000 -0.000000 0.000000 
-0.130021 69.836281 3.714430 -1.889864 -0.745666 -1.807505 0.000000 -0.000000 -0.000000 -28.915439 5.357249 5.230374 52.781848 2.236552 0.646994 -5.751004 0.610853 -5.915354 0.000001 0.000001 -0.000000 -0.000000 0.000000 -0.000000 -5.677903 -4.449502 5.422532 28.030724 8.030794 1.280481 -15.921403 1.500431 -9.032675 -0.000000 0.000000 -0.000000 -0.000000 0.000001 0.000000 13.586926 1.289814 1.989304 -4.094091 1.037374 -0.730805 -4.079368 0.974961 -0.851444 0.594666 -1.433998 1.905262 -6.789623 -0.367474 -1.811501 -0.000000 -0.000000 0.000000 -0.000000 -0.000000 0.000000 -0.000000 -0.000000 0.000000 -0.000000 -0.000000 0.000000 -0.000000 0.000000 -0.000000 -0.000000 -0.000000 0.000000 -0.000000 0.000000 -0.000000 -0.000000 -0.000000 0.000000 -0.000000 -0.000000 0.000000 2.423918 2.927633 -2.220956 -2.722007 -7.105664 -73.957104 12.217806 -10.722486 -8.936934 -0.355740 1.792808 11.441440 -4.982880 13.405903 11.311812 3.519529 8.484250 1.852698 -0.000001 -0.000001 -0.000003 0.376753 -6.145562 -25.284517 -0.025347 0.056372 -22.184874 0.000002 0.000001 0.000002 -0.682888 -5.541251 -29.068237 -0.003839 0.004160 -24.675356 0.000001 -0.000000 0.000001 -1.915480 -6.193574 -34.198491 -0.005471 0.005428 -28.105189 -0.000000 0.000001 -0.000002 -3.466253 -6.910099 -39.124567 -0.023425 0.014755 -31.381680 0.000001 -0.000000 -0.000001 0.000001 0.000000 -0.000000 3.409644 0.980379 3.979540 -2.042302 27.524844 69.535895 5.989995 21.216746 4.101928 -19.590323 1.025076 -11.923052 -0.749152 -20.638453 -5.086345 4.541468 -11.071721 -2.314938 -0.000002 0.000000 0.000001 0.748669 1.485615 23.202692 -0.030777 -0.054731 19.908980 0.000000 0.000001 -0.000001 -0.267938 2.185098 25.524671 -0.002381 0.002450 21.458421 0.000001 0.000003 0.000001 -1.284838 3.638293 29.547695 -0.011099 -0.002740 24.107318 0.000001 0.000001 -0.000001 -2.714536 5.335832 33.797566 0.008024 -0.005772 26.995686 0.000004 0.000001 0.000002 -0.000002 0.000002 -0.000001 -0.000000 -0.000000 0.000000 -0.000000 0.000000 -0.000000 -0.000000 -0.000000 0.000000 -0.000000 -0.000000 0.000000 -0.000000 -0.000000 0.000000 -0.000000 0.000000 -0.000000 -0.000000 -0.000000 0.000000 -0.000000 -0.000000 0.000000 -0.000000 -0.000000 0.000000 -0.000000 0.000000 -0.000000 0.000000 -0.000000 -0.000000 0.000000 -0.000000 -0.000000 0.000000 -0.000000 -0.000000 
-0.043788 69.696503 5.945334 -1.167003 -1.267187 -1.738448 -0.000000 -0.000000 -0.000000 -30.020440 5.718772 4.791069 42.257660 2.355209 0.707006 -4.720893 0.494186 -5.128058 -0.000000 0.000000 0.000000 0.000001 -0.000000 0.000000 -4.653329 -4.567029 4.944593 28.609941 9.115013 1.377459 -17.113032 1.171634 -8.389228 -0.000001 -0.000001 0.000000 0.000000 0.000000 0.000000 12.781760 1.418582 1.811820 -3.991050 1.169499 -0.695612 -3.975474 1.108343 -0.830045 1.282462 -1.318879 1.629993 -7.544822 -0.208121 -2.272135 -0.000000 -0.000000 0.000000 -0.000000 -0.000000 0.000000 -0.000000 -0.000000 0.000000 -0.000000 -0.000000 0.000000 0.000000 -0.000000 0.000000 -0.000000 -0.000000 0.000000 0.000000 -0.000000 0.000000 -0.000000 -0.000000 0.000000 -0.000000 -0.000000 0.000000 2.499833 3.701955 -3.096265 -1.903098 -6.291417 -73.769629 13.047238 -11.103904 -8.710765 -0.258127 1.123432 11.362738 -4.982877 13.405885 11.311808 3.519522 8.484265 1.852770 0.000002 0.000001 -0.000001 0.376768 -6.145572 -25.284489 -0.025353 0.056380 -22.184893 0.000003 0.000003 0.000002 -0.682864 -5.541264 -29.068230 -0.003866 0.004161 -24.675360 0.000002 -0.000001 0.000002 -1.915468 -6.193593 -34.198484 -0.005461 0.005431 -28.105154 0.000001 0.000001 -0.000001 -3.466227 -6.910111 -39.124567 -0.023419 0.014736 -31.381700 -0.000000 -0.000000 -0.000001 0.000000 0.000000 -0.000000 3.368831 1.726150 3.566143 -2.838348 29.307969 68.972446 5.099984 21.693951 3.532745 -19.583071 1.656637 -11.487989 -0.676934 -20.842575 -5.110026 4.541481 -11.071729 -2.314960 -0.000001 -0.000001 0.000002 0.748666 1.485597 23.202670 -0.030768 -0.054724 19.908984 0.000001 0.000000 0.000000 -0.267951 2.185090 25.524676 -0.002380 0.002425 21.458397 0.000003 -0.000001 -0.000001 -1.284821 3.638280 29.547692 -0.011049 -0.001798 23.969777 0.000000 -0.000001 -0.000001 -2.714515 5.335848 33.797531 0.008012 -0.005799 26.995679 0.000002 0.000001 0.000001 0.000000 0.000000 0.000000 0.000000 0.000000 -0.000000 0.000000 -0.000000 0.000000 0.000000 0.000000 -0.000000 0.000000 0.000000 -0.000000 0.000000 0.000000 -0.000000 0.000000 -0.000000 0.000000 0.000000 0.000000 -0.000000 0.000000 0.000000 -0.000000 0.000000 0.000000 -0.000000 0.000000 -0.000000 0.000000 -0.000000 -0.000000 -0.000000 -0.000000 -0.000000 -0.000000 -0.000000 -0.000000 -0.000000 
0.068700 69.511940 8.222528 -0.450477 -1.499994 -1.771823 -0.000000 -0.000000 0.000000 -30.474419 6.070903 4.325780 31.917956 0.828557 0.710802 -5.252424 0.455733 -4.524129 0.000000 -0.000000 -0.000000 0.000001 -0.000000 -0.000000 -2.883684 -4.697942 4.764702 28.191066 9.879758 1.423897 -18.733363 1.014762 -8.553295 0.000000 0.000000 0.000000 0.000000 -0.000001 -0.000002 12.191743 1.454033 1.715539 -3.986779 1.210803 -0.674932 -3.971103 1.152872 -0.811702 1.787223 -1.166144 1.603734 -8.240981 0.065486 -2.665152 -0.000000 0.000000 -0.000000 -0.000000 0.000000 -0.000000 -0.000000 0.000000 -0.000000 -0.000000 0.000000 -0.000000 0.000000 0.000000 -0.000000 -0.000000 0.000000 -0.000000 0.000000 0.000000 -0.000000 -0.000000 0.000000 -0.000000 -0.000000 0.000000 -0.000000 2.530681 3.988618 -3.472105 -1.281661 -5.434518 -74.040972 13.577754 -10.953967 -8.623849 -0.300873 1.493660 11.228385 -4.982859 13.405876 11.311814 3.519520 8.484269 1.852718 -0.000000 -0.000000 -0.000001 0.376757 -6.145561 -25.284524 -0.025324 0.056385 -22.184864 0.000000 -0.000000 -0.000000 -0.682877 -5.541257 -29.068257 -0.003844 0.004164 -24.675385 0.000000 -0.000001 -0.000005 -1.915469 -6.193583 -34.198508 -0.005471 0.005424 -28.105173 -0.000001 0.000000 -0.000001 -3.466241 -6.910095 -39.124584 -0.023399 0.014730 -31.381711 -0.000000 0.000000 0.000003 -0.000000 -0.000000 0.000000 3.340456 2.276168 3.146932 -3.607005 30.918730 68.574881 4.672958 21.992130 2.808278 -19.640740 2.114820 -11.097381 -0.587358 -21.095845 -5.139175 4.541481 -11.071730 -2.314951 -0.000002 -0.000001 -0.000001 0.748668 1.485598 23.202656 -0.030782 -0.054727 19.908982 0.000000 -0.000001 0.000000 -0.267963 2.185088 25.524682 -0.002388 0.002453 21.458451 0.000003 0.000002 0.000001 -1.284848 3.638289 29.547692 -0.010987 -0.000672 23.799888 0.000002 0.000000 0.000001 -2.714549 5.335813 33.797572 0.008015 -0.005781 26.995703 -0.000001 0.000004 -0.000001 -0.000000 0.000002 -0.000003 -0.000000 0.000000 0.000000 0.000000 0.000000 -0.000000 -0.000000 0.000000 -0.000000 -0.000000 0.000000 -0.000000 -0.000000 0.000000 0.000000 0.000000 0.000000 -0.000000 -0.000000 0.000000 -0.000000 -0.000000 0.000000 -0.000000 -0.000000 0.000000 0.000000 0.000000 0.000000 -0.000000 -0.000000 -0.000000 0.000000 -0.000000 -0.000000 0.000000 -0.000000 -0.000000 0.000000 
